<?xml version="1.0" standalone="no"?>
<!DOCTYPE svg PUBLIC "-//W3C//DTD SVG 20010904//EN"
 "http://www.w3.org/TR/2001/REC-SVG-20010904/DTD/svg10.dtd">
<svg version="1.0" xmlns="http://www.w3.org/2000/svg"
 width="1080.000000pt" height="1080.000000pt" viewBox="0 0 1080.000000 1080.000000"
 preserveAspectRatio="xMidYMid meet">
<metadata>
Created by potrace 1.14, written by Peter Selinger 2001-2017
</metadata>
<g transform="translate(0.000000,1080.000000) scale(0.100000,-0.100000)"
fill="#000000" stroke="none">
<path d="M0 7383 c0 -3397 1 -3418 20 -3443 l20 -25 22 28 c21 29 22 29 99 22
55 -5 79 -4 79 4 0 6 -12 12 -27 12 l-28 1 30 8 c17 4 22 8 13 9 -14 1 -18 10
-18 41 l0 40 -40 0 -40 0 0 120 0 120 -25 0 -25 0 0 160 0 160 25 0 c25 0 25
1 25 80 0 79 0 80 -25 80 l-25 0 0 120 0 120 25 0 25 0 0 120 c0 100 3 120 15
120 12 0 15 16 15 80 0 79 0 80 25 80 23 0 25 4 25 40 0 29 4 40 15 40 13 0
15 20 15 120 l0 120 40 0 40 0 0 80 c0 79 0 80 25 80 23 0 25 4 25 40 l0 40
40 0 40 0 0 40 c0 36 -2 40 -25 40 -20 0 -25 5 -25 25 0 23 4 25 40 25 l40 0
0 55 0 55 40 0 40 0 0 40 c0 36 3 40 25 40 23 0 25 4 25 40 0 29 4 40 15 40
11 0 15 11 15 40 l0 40 40 0 40 0 0 65 0 65 40 0 c29 0 40 4 40 15 0 9 9 15
25 15 23 0 25 4 25 40 0 29 4 40 15 40 11 0 15 11 15 40 l0 40 40 0 c36 0 40
3 40 25 0 23 4 25 40 25 29 0 40 4 40 15 0 9 9 15 25 15 23 0 25 4 25 40 0 29
4 40 15 40 11 0 15 11 15 40 l0 40 40 0 c36 0 40 3 40 25 0 23 4 25 40 25 29
0 40 4 40 15 0 11 11 15 40 15 l40 0 0 80 0 80 80 0 c79 0 80 0 80 25 0 23 4
25 40 25 29 0 40 4 40 15 0 11 11 15 40 15 l40 0 0 40 0 40 45 0 45 0 0 -40
c0 -28 4 -40 14 -40 10 0 16 22 21 80 5 58 11 80 21 80 8 0 14 10 14 25 0 25
1 25 80 25 64 0 80 3 80 15 0 11 11 15 40 15 l40 0 0 40 0 40 80 0 c79 0 80 0
80 25 0 23 4 25 40 25 l40 0 0 40 0 40 80 0 c64 0 80 3 80 15 0 12 16 15 80
15 l80 0 0 40 0 40 65 0 65 0 0 40 c0 29 4 40 15 40 8 0 15 -7 15 -15 0 -12
17 -15 89 -15 66 0 92 4 101 15 7 8 21 15 31 15 14 0 19 7 19 25 0 23 4 25 40
25 29 0 40 4 40 15 0 13 20 15 120 15 97 0 120 3 120 14 0 8 8 17 19 21 10 3
26 14 36 25 16 18 31 20 142 20 l123 0 0 25 0 25 129 0 c102 0 131 3 141 15 7
8 21 15 31 15 14 0 19 7 19 25 0 23 4 25 40 25 29 0 40 4 40 15 0 11 11 15 40
15 29 0 40 -4 40 -15 0 -21 93 -21 110 0 10 13 53 15 271 15 l259 0 0 40 0 40
600 0 c527 0 600 -2 600 -15 0 -11 11 -15 40 -15 22 0 40 -4 40 -10 0 -17 17
-11 48 15 21 18 42 25 71 25 l41 0 0 -40 0 -40 240 0 c207 0 240 -2 240 -15 0
-13 24 -15 160 -15 l160 0 0 -25 c0 -22 4 -25 40 -25 29 0 40 -4 40 -15 0 -12
20 -15 120 -15 l120 0 0 -25 0 -25 120 0 c81 0 120 -4 120 -11 0 -6 14 -24 31
-40 30 -28 36 -29 120 -29 58 0 89 -4 89 -11 0 -13 58 -69 71 -69 5 0 9 11 9
25 0 25 1 25 80 25 l80 0 0 -36 c0 -27 7 -43 31 -65 38 -36 49 -36 49 -4 0 23
4 25 40 25 29 0 40 4 40 15 0 9 9 15 25 15 23 0 25 -4 25 -40 l0 -40 55 0 c33
0 55 -4 55 -11 0 -6 14 -24 31 -40 26 -24 40 -29 80 -29 29 0 49 -5 49 -11 0
-13 58 -69 71 -69 5 0 9 11 9 25 0 23 4 25 40 25 36 0 40 -2 40 -25 0 -22 4
-25 40 -25 29 0 40 -4 40 -15 0 -11 11 -15 40 -15 36 0 40 -2 40 -25 l0 -25
120 0 120 0 0 -55 0 -55 40 0 c36 0 40 -3 40 -24 0 -15 12 -34 31 -50 32 -27
49 -33 49 -16 0 6 18 10 40 10 36 0 40 -2 40 -25 0 -22 4 -25 40 -25 22 0 40
-5 40 -11 0 -6 14 -24 31 -40 26 -24 40 -29 80 -29 37 0 49 -4 49 -15 0 -11
11 -15 40 -15 36 0 40 -3 40 -24 0 -15 12 -34 31 -50 32 -27 49 -33 49 -16 0
6 18 10 40 10 36 0 40 -2 40 -25 0 -24 2 -25 65 -25 l65 0 0 -40 c0 -29 4 -40
15 -40 8 0 15 -7 15 -15 0 -12 16 -15 80 -15 79 0 80 0 80 -25 0 -20 5 -25 25
-25 23 0 25 -4 25 -40 l0 -40 55 0 55 0 0 -40 0 -40 40 0 c29 0 40 -4 40 -15
0 -11 11 -15 40 -15 36 0 40 -2 40 -25 0 -22 4 -25 40 -25 l40 0 0 -40 0 -40
40 0 40 0 0 -40 0 -40 40 0 c29 0 40 -4 40 -15 0 -11 11 -15 40 -15 l40 0 0
65 0 65 -115 0 -115 0 0 30 0 30 75 0 c73 0 75 -1 75 -25 0 -22 4 -25 40 -25
l40 0 0 2025 0 2025 -5400 0 -5400 0 0 -3417z m3515 827 l0 -25 -160 -1 c-88
0 -123 1 -77 3 80 4 82 4 82 29 0 25 1 25 78 22 75 -3 77 -4 77 -28z m4165 5
c0 -23 2 -24 83 -28 46 -1 14 -4 -75 -5 l-158 -2 0 30 0 30 75 0 c73 0 75 -1
75 -25z m1360 -479 c0 -22 5 -25 43 -29 25 -2 11 -4 -35 -5 l-78 -2 0 30 c0
28 3 30 35 30 30 0 35 -3 35 -24z m-6982 -33 c-10 -2 -28 -2 -40 0 -13 2 -5 4
17 4 22 1 32 -1 23 -4z m-481 -245 c-2 -13 -4 -3 -4 22 0 25 2 35 4 23 2 -13
2 -33 0 -45z m8411 -235 c-10 -2 -28 -2 -40 0 -13 2 -5 4 17 4 22 1 32 -1 23
-4z m419 -245 c-2 -13 -4 -3 -4 22 0 25 2 35 4 23 2 -13 2 -33 0 -45z m-9550
-160 c-2 -13 -4 -3 -4 22 0 25 2 35 4 23 2 -13 2 -33 0 -45z m-480 -640 c-2
-13 -4 -3 -4 22 0 25 2 35 4 23 2 -13 2 -33 0 -45z m-80 -160 c-2 -13 -4 -3
-4 22 0 25 2 35 4 23 2 -13 2 -33 0 -45z m-88 -489 c-6 -4 -19 -6 -28 -4 -13
2 -16 20 -19 118 l-3 117 26 0 c22 0 25 4 27 43 1 23 4 -27 5 -112 3 -109 0
-157 -8 -162z m-72 29 c-2 -24 -4 -5 -4 42 0 47 2 66 4 43 2 -24 2 -62 0 -85z
m-80 -240 c-2 -24 -4 -5 -4 42 0 47 2 66 4 43 2 -24 2 -62 0 -85z m0 -1300
c-2 -13 -4 -3 -4 22 0 25 2 35 4 23 2 -13 2 -33 0 -45z m86 -25 c-13 -2 -33
-2 -45 0 -13 2 -3 4 22 4 25 0 35 -2 23 -4z"/>
<path d="M6840 8200 c0 -33 -3 -40 -20 -40 -11 0 -20 -4 -20 -10 0 -6 47 -10
120 -10 73 0 120 4 120 10 0 6 -35 10 -85 10 l-85 0 0 40 c0 29 -4 40 -15 40
-11 0 -15 -11 -15 -40z"/>
<path d="M3720 8120 l0 -40 -60 0 c-33 0 -60 -4 -60 -10 0 -6 47 -10 120 -10
73 0 120 4 120 10 0 6 -20 10 -45 10 l-45 0 0 40 c0 29 -4 40 -15 40 -11 0
-15 -11 -15 -40z"/>
<path d="M4000 8150 c0 -6 33 -10 80 -10 47 0 80 4 80 10 0 6 -33 10 -80 10
-47 0 -80 -4 -80 -10z"/>
<path d="M7200 8070 c0 -6 47 -10 120 -10 73 0 120 4 120 10 0 6 -47 10 -120
10 -73 0 -120 -4 -120 -10z"/>
<path d="M8010 7960 l0 -40 -45 0 c-25 0 -45 -4 -45 -10 0 -6 33 -10 80 -10
47 0 80 4 80 10 0 6 -9 10 -20 10 -17 0 -20 7 -20 40 0 29 -4 40 -15 40 -11 0
-15 -11 -15 -40z"/>
<path d="M2960 7910 c0 -6 33 -10 80 -10 47 0 80 4 80 10 0 6 -33 10 -80 10
-47 0 -80 -4 -80 -10z"/>
<path d="M2800 7830 c0 -5 18 -10 40 -10 22 0 40 5 40 10 0 6 -18 10 -40 10
-22 0 -40 -4 -40 -10z"/>
<path d="M8160 7830 c0 -5 18 -10 40 -10 22 0 40 5 40 10 0 6 -18 10 -40 10
-22 0 -40 -4 -40 -10z"/>
<path d="M2250 7646 c0 -19 -3 -41 -6 -50 -5 -13 2 -16 35 -16 23 0 41 5 41
10 0 6 -9 10 -20 10 -17 0 -20 7 -20 40 0 29 -4 40 -15 40 -10 0 -15 -10 -15
-34z"/>
<path d="M2400 7670 c0 -5 18 -10 40 -10 22 0 40 5 40 10 0 6 -18 10 -40 10
-22 0 -40 -4 -40 -10z"/>
<path d="M8640 7670 c0 -5 18 -10 40 -10 22 0 40 5 40 10 0 6 -18 10 -40 10
-22 0 -40 -4 -40 -10z"/>
<path d="M8800 7590 c0 -5 18 -10 40 -10 22 0 40 5 40 10 0 6 -18 10 -40 10
-22 0 -40 -4 -40 -10z"/>
<path d="M1920 7430 c0 -5 18 -10 40 -10 22 0 40 5 40 10 0 6 -18 10 -40 10
-22 0 -40 -4 -40 -10z"/>
<path d="M9120 7430 c0 -5 18 -10 40 -10 22 0 40 5 40 10 0 6 -18 10 -40 10
-22 0 -40 -4 -40 -10z"/>
<path d="M1840 7350 c0 -5 18 -10 40 -10 22 0 40 5 40 10 0 6 -18 10 -40 10
-22 0 -40 -4 -40 -10z"/>
<path d="M9280 7350 c0 -5 18 -10 40 -10 22 0 40 5 40 10 0 6 -18 10 -40 10
-22 0 -40 -4 -40 -10z"/>
<path d="M1530 7240 c0 -29 4 -40 15 -40 11 0 15 11 15 40 0 29 -4 40 -15 40
-11 0 -15 -11 -15 -40z"/>
<path d="M9680 7110 c0 -5 18 -10 40 -10 22 0 40 5 40 10 0 6 -18 10 -40 10
-22 0 -40 -4 -40 -10z"/>
<path d="M10000 6950 c0 -5 18 -10 40 -10 22 0 40 5 40 10 0 6 -18 10 -40 10
-22 0 -40 -4 -40 -10z"/>
<path d="M10080 6870 c0 -5 18 -10 40 -10 22 0 40 5 40 10 0 6 -18 10 -40 10
-22 0 -40 -4 -40 -10z"/>
<path d="M10440 6760 c0 -29 4 -40 15 -40 11 0 15 11 15 40 0 29 -4 40 -15 40
-11 0 -15 -11 -15 -40z"/>
<path d="M10400 6630 c0 -5 18 -10 40 -10 22 0 40 5 40 10 0 6 -18 10 -40 10
-22 0 -40 -4 -40 -10z"/>
<path d="M810 6520 c0 -29 4 -40 15 -40 11 0 15 11 15 40 0 29 -4 40 -15 40
-11 0 -15 -11 -15 -40z"/>
<path d="M10640 6470 c0 -5 18 -10 40 -10 22 0 40 5 40 10 0 6 -18 10 -40 10
-22 0 -40 -4 -40 -10z"/>
<path d="M650 6280 c0 -29 4 -40 15 -40 11 0 15 11 15 40 0 29 -4 40 -15 40
-11 0 -15 -11 -15 -40z"/>
<path d="M570 6200 c0 -29 4 -40 15 -40 11 0 15 11 15 40 0 29 -4 40 -15 40
-11 0 -15 -11 -15 -40z"/>
<path d="M490 6080 c0 -64 3 -80 15 -80 12 0 15 16 15 80 0 64 -3 80 -15 80
-12 0 -15 -16 -15 -80z"/>
<path d="M410 5800 c0 -29 4 -40 15 -40 11 0 15 11 15 40 0 29 -4 40 -15 40
-11 0 -15 -11 -15 -40z"/>
<path d="M330 5720 c0 -29 4 -40 15 -40 11 0 15 11 15 40 0 29 -4 40 -15 40
-11 0 -15 -11 -15 -40z"/>
<path d="M250 5560 c0 -29 4 -40 15 -40 11 0 15 11 15 40 0 29 -4 40 -15 40
-11 0 -15 -11 -15 -40z"/>
<path d="M170 4920 c0 -29 4 -40 15 -40 11 0 15 11 15 40 0 29 -4 40 -15 40
-11 0 -15 -11 -15 -40z"/>
<path d="M168 4753 c-2 -27 -2 -135 0 -240 4 -155 7 -193 18 -193 11 0 14 31
14 160 0 100 4 160 10 160 6 0 10 18 10 40 0 22 -4 40 -10 40 -5 0 -10 18 -10
40 0 60 -27 54 -32 -7z m32 -73 c0 -22 -4 -40 -10 -40 -5 0 -10 18 -10 40 0
22 5 40 10 40 6 0 10 -18 10 -40z"/>
<path d="M5385 4201 c-3 -6 -3 -15 0 -21 3 -5 1 -10 -4 -10 -6 0 -11 -9 -11
-20 0 -13 -7 -20 -20 -20 -10 0 -25 -10 -31 -22 -10 -19 -9 -24 10 -36 22 -15
30 -75 11 -87 -5 -3 -14 -24 -20 -47 l-12 -41 -126 6 c-70 4 -714 13 -1432 22
-1012 11 -1561 12 -2445 5 -627 -6 -1177 -13 -1222 -16 l-83 -6 0 -1954 0
-1954 5400 0 5400 0 0 1965 0 1965 -27 0 c-26 0 -181 -6 -878 -30 -1425 -49
-1612 -51 -2980 -31 -1332 20 -1446 23 -1434 38 9 10 8 13 -4 13 -27 0 -45 43
-46 110 0 35 -5 77 -10 94 -5 17 -9 42 -8 55 2 25 -17 40 -28 22z m25 -235
c10 -24 23 -47 29 -51 22 -13 2 -20 -48 -17 -43 3 -51 7 -51 24 0 19 36 88 46
88 3 0 13 -20 24 -44z"/>
<path d="M80 3951 c0 -4 31 -12 70 -15 82 -8 121 5 45 16 -73 9 -115 9 -115
-1z"/>
</g>
</svg>
